# xmcd
#
# Track frame offsets: 
#        150
#        22352
#        49828
#        70718
#        75298
#        95477
#        111688
#        134404
#        140358
#        159730
#        176930
#        202486
#
# Disc length: 3357 seconds
#
# Revision: 0
# Processed by: cddbd v1.5.2PL0 Copyright (c) Steve Scherf et al.
# Submitted via: ExactAudioCopyFreeDBPlugin 1.0
#
DISCID=ba0d1b0c
DTITLE=Beverly Crawford - Live from Los Angeles Vol. 2
DYEAR=1900
DGENRE=Gospel
TTITLE0=It's About Time For A Miracle!
TTITLE1=It's So
TTITLE2=Born Again
TTITLE3=(Intro) For Who You Are
TTITLE4=For Who You Are
TTITLE5=Everything Will Be Alright featuring Shirley Murdock and Shawn M
TTITLE5=cLemore
TTITLE6=Serve You Well
TTITLE7=(Reprise) Serve You Well
TTITLE8=Radical Praise featuring Trina and Todd Crawford
TTITLE9=I Need A Word featuring Trina Crawford
TTITLE10=Marvelous featuring Shirley Murdock
TTITLE11=JDI Sampler
EXTD=
EXTT0=
EXTT1=
EXTT2=
EXTT3=
EXTT4=
EXTT5=
EXTT6=
EXTT7=
EXTT8=
EXTT9=
EXTT10=
EXTT11=
PLAYORDER=
